<mxfile host="app.diagrams.net" modified="2024-03-24T15:09:58.206Z" agent="Mozilla/5.0 (Macintosh; Intel Mac OS X 10_15_7) AppleWebKit/537.36 (KHTML, like Gecko) Chrome/123.0.0.0 Safari/537.36" etag="E-cqS1fY419MC0dme5IE" version="24.1.0" type="google">
  <diagram name="Page-1" id="xOBLhyYj3MYxFQuUd8QE">
    <mxGraphModel grid="1" page="1" gridSize="10" guides="1" tooltips="1" connect="1" arrows="1" fold="1" pageScale="1" pageWidth="850" pageHeight="1100" math="0" shadow="0">
      <root>
        <mxCell id="0" />
        <mxCell id="1" parent="0" />
        <mxCell id="a0uawv8okTH7sb19AHDm-1" value="&lt;a href=&quot;https://github.com/donnemartin/system-design-primer/blob/master/solutions/system_design/pastebin/README.md&quot;&gt;Github Link&lt;/a&gt;" style="text;html=1;align=center;verticalAlign=middle;whiteSpace=wrap;rounded=0;" vertex="1" parent="1">
          <mxGeometry x="260" y="30" width="90" height="30" as="geometry" />
        </mxCell>
        <mxCell id="a0uawv8okTH7sb19AHDm-7" style="edgeStyle=orthogonalEdgeStyle;rounded=0;orthogonalLoop=1;jettySize=auto;html=1;entryX=0;entryY=0.5;entryDx=0;entryDy=0;" edge="1" parent="1" source="a0uawv8okTH7sb19AHDm-4" target="a0uawv8okTH7sb19AHDm-6">
          <mxGeometry relative="1" as="geometry" />
        </mxCell>
        <mxCell id="a0uawv8okTH7sb19AHDm-10" style="edgeStyle=orthogonalEdgeStyle;rounded=0;orthogonalLoop=1;jettySize=auto;html=1;entryX=0.5;entryY=0;entryDx=0;entryDy=0;" edge="1" parent="1" target="a0uawv8okTH7sb19AHDm-5">
          <mxGeometry relative="1" as="geometry">
            <mxPoint x="415" y="180" as="sourcePoint" />
          </mxGeometry>
        </mxCell>
        <mxCell id="a0uawv8okTH7sb19AHDm-17" style="edgeStyle=orthogonalEdgeStyle;rounded=0;orthogonalLoop=1;jettySize=auto;html=1;entryX=0.5;entryY=0;entryDx=0;entryDy=0;" edge="1" parent="1" source="a0uawv8okTH7sb19AHDm-4" target="a0uawv8okTH7sb19AHDm-16">
          <mxGeometry relative="1" as="geometry" />
        </mxCell>
        <mxCell id="a0uawv8okTH7sb19AHDm-4" value="Actor" style="shape=umlActor;verticalLabelPosition=bottom;verticalAlign=top;html=1;outlineConnect=0;" vertex="1" parent="1">
          <mxGeometry x="410" y="40" width="30" height="60" as="geometry" />
        </mxCell>
        <mxCell id="a0uawv8okTH7sb19AHDm-13" style="edgeStyle=orthogonalEdgeStyle;rounded=0;orthogonalLoop=1;jettySize=auto;html=1;" edge="1" parent="1" source="a0uawv8okTH7sb19AHDm-5">
          <mxGeometry relative="1" as="geometry">
            <mxPoint x="290" y="360" as="targetPoint" />
          </mxGeometry>
        </mxCell>
        <mxCell id="a0uawv8okTH7sb19AHDm-15" style="edgeStyle=orthogonalEdgeStyle;rounded=0;orthogonalLoop=1;jettySize=auto;html=1;" edge="1" parent="1" source="a0uawv8okTH7sb19AHDm-5" target="a0uawv8okTH7sb19AHDm-14">
          <mxGeometry relative="1" as="geometry" />
        </mxCell>
        <mxCell id="a0uawv8okTH7sb19AHDm-5" value="Web Server" style="rounded=0;whiteSpace=wrap;html=1;" vertex="1" parent="1">
          <mxGeometry x="355" y="240" width="120" height="30" as="geometry" />
        </mxCell>
        <mxCell id="a0uawv8okTH7sb19AHDm-6" value="CDN" style="rounded=0;whiteSpace=wrap;html=1;" vertex="1" parent="1">
          <mxGeometry x="580" y="50" width="60" height="40" as="geometry" />
        </mxCell>
        <mxCell id="a0uawv8okTH7sb19AHDm-8" value="&lt;h1 style=&quot;margin-top: 0px;&quot;&gt;Use Cases:&lt;/h1&gt;&lt;div&gt;- User create new text with URL&lt;/div&gt;&lt;div&gt;- Url is accessed and retrive data&lt;/div&gt;" style="text;html=1;whiteSpace=wrap;overflow=hidden;rounded=0;" vertex="1" parent="1">
          <mxGeometry x="-340" y="120" width="180" height="120" as="geometry" />
        </mxCell>
        <mxCell id="a0uawv8okTH7sb19AHDm-9" value="&lt;h1 style=&quot;margin-top: 0px;&quot;&gt;Assumptions:&lt;/h1&gt;&lt;div&gt;- No registration&lt;/div&gt;&lt;div&gt;- Read Heavy&lt;/div&gt;&lt;div&gt;- Delete expired URL&lt;/div&gt;&lt;div&gt;- Anonymous&amp;nbsp;&lt;/div&gt;" style="text;html=1;whiteSpace=wrap;overflow=hidden;rounded=0;" vertex="1" parent="1">
          <mxGeometry x="-350" y="270" width="180" height="120" as="geometry" />
        </mxCell>
        <mxCell id="a0uawv8okTH7sb19AHDm-19" style="edgeStyle=orthogonalEdgeStyle;rounded=0;orthogonalLoop=1;jettySize=auto;html=1;" edge="1" parent="1" source="a0uawv8okTH7sb19AHDm-12" target="a0uawv8okTH7sb19AHDm-18">
          <mxGeometry relative="1" as="geometry" />
        </mxCell>
        <mxCell id="a0uawv8okTH7sb19AHDm-12" value="Write API" style="rounded=1;whiteSpace=wrap;html=1;" vertex="1" parent="1">
          <mxGeometry x="235" y="360" width="120" height="60" as="geometry" />
        </mxCell>
        <mxCell id="a0uawv8okTH7sb19AHDm-14" value="Read API" style="rounded=1;whiteSpace=wrap;html=1;" vertex="1" parent="1">
          <mxGeometry x="390" y="360" width="120" height="60" as="geometry" />
        </mxCell>
        <mxCell id="a0uawv8okTH7sb19AHDm-16" value="LB" style="rounded=0;whiteSpace=wrap;html=1;" vertex="1" parent="1">
          <mxGeometry x="355" y="150" width="120" height="30" as="geometry" />
        </mxCell>
        <mxCell id="a0uawv8okTH7sb19AHDm-18" value="SQL Write Master" style="shape=cylinder3;whiteSpace=wrap;html=1;boundedLbl=1;backgroundOutline=1;size=15;" vertex="1" parent="1">
          <mxGeometry x="230" y="630" width="60" height="80" as="geometry" />
        </mxCell>
        <mxCell id="a0uawv8okTH7sb19AHDm-57" style="edgeStyle=orthogonalEdgeStyle;rounded=0;orthogonalLoop=1;jettySize=auto;html=1;entryX=0.5;entryY=0;entryDx=0;entryDy=0;" edge="1" parent="1" source="a0uawv8okTH7sb19AHDm-20" target="a0uawv8okTH7sb19AHDm-54">
          <mxGeometry relative="1" as="geometry">
            <Array as="points">
              <mxPoint x="335" y="560" />
              <mxPoint x="335" y="560" />
            </Array>
          </mxGeometry>
        </mxCell>
        <mxCell id="a0uawv8okTH7sb19AHDm-20" value="Write API" style="rounded=1;whiteSpace=wrap;html=1;" vertex="1" parent="1">
          <mxGeometry x="245" y="370" width="120" height="60" as="geometry" />
        </mxCell>
        <mxCell id="a0uawv8okTH7sb19AHDm-41" style="edgeStyle=orthogonalEdgeStyle;rounded=0;orthogonalLoop=1;jettySize=auto;html=1;entryX=0.5;entryY=0;entryDx=0;entryDy=0;" edge="1" parent="1" source="a0uawv8okTH7sb19AHDm-23" target="a0uawv8okTH7sb19AHDm-39">
          <mxGeometry relative="1" as="geometry" />
        </mxCell>
        <mxCell id="a0uawv8okTH7sb19AHDm-60" style="edgeStyle=orthogonalEdgeStyle;rounded=0;orthogonalLoop=1;jettySize=auto;html=1;entryX=0.5;entryY=0;entryDx=0;entryDy=0;" edge="1" parent="1" source="a0uawv8okTH7sb19AHDm-23" target="a0uawv8okTH7sb19AHDm-59">
          <mxGeometry relative="1" as="geometry" />
        </mxCell>
        <mxCell id="a0uawv8okTH7sb19AHDm-23" value="Read API" style="rounded=1;whiteSpace=wrap;html=1;" vertex="1" parent="1">
          <mxGeometry x="400" y="370" width="120" height="60" as="geometry" />
        </mxCell>
        <mxCell id="a0uawv8okTH7sb19AHDm-24" value="" style="shape=cylinder3;whiteSpace=wrap;html=1;boundedLbl=1;backgroundOutline=1;size=15;" vertex="1" parent="1">
          <mxGeometry x="389" y="626" width="60" height="80" as="geometry" />
        </mxCell>
        <mxCell id="a0uawv8okTH7sb19AHDm-25" value="SQL Read replica" style="shape=cylinder3;whiteSpace=wrap;html=1;boundedLbl=1;backgroundOutline=1;size=15;" vertex="1" parent="1">
          <mxGeometry x="370" y="632" width="60" height="80" as="geometry" />
        </mxCell>
        <mxCell id="a0uawv8okTH7sb19AHDm-26" value="" style="endArrow=none;dashed=1;html=1;rounded=0;exitX=1;exitY=0.5;exitDx=0;exitDy=0;exitPerimeter=0;entryX=0;entryY=0.5;entryDx=0;entryDy=0;entryPerimeter=0;" edge="1" parent="1" source="a0uawv8okTH7sb19AHDm-18" target="a0uawv8okTH7sb19AHDm-25">
          <mxGeometry width="50" height="50" relative="1" as="geometry">
            <mxPoint x="335" y="620" as="sourcePoint" />
            <mxPoint x="385" y="570" as="targetPoint" />
          </mxGeometry>
        </mxCell>
        <mxCell id="a0uawv8okTH7sb19AHDm-31" value="&lt;h1 style=&quot;margin-top: 0px;&quot;&gt;Calculation:&lt;/h1&gt;&lt;div&gt;&lt;ul style=&quot;box-sizing: border-box; padding-left: 2em; margin-top: 0px; margin-bottom: 16px; color: rgb(36, 41, 47); font-family: -apple-system, &amp;quot;system-ui&amp;quot;, &amp;quot;Segoe UI&amp;quot;, &amp;quot;Noto Sans&amp;quot;, Helvetica, Arial, sans-serif, &amp;quot;Apple Color Emoji&amp;quot;, &amp;quot;Segoe UI Emoji&amp;quot;; font-size: 14px;&quot; dir=&quot;auto&quot;&gt;&lt;li style=&quot;box-sizing: border-box;&quot;&gt;Size per paste&lt;ul style=&quot;box-sizing: border-box; padding-left: 2em; margin-top: 0px; margin-bottom: 0px;&quot; dir=&quot;auto&quot;&gt;&lt;li style=&quot;box-sizing: border-box;&quot;&gt;1 KB content per paste&lt;/li&gt;&lt;li style=&quot;box-sizing: border-box; margin-top: 0.25em;&quot;&gt;&lt;code style=&quot;box-sizing: border-box; font-family: ui-monospace, SFMono-Regular, &amp;quot;SF Mono&amp;quot;, Menlo, Consolas, &amp;quot;Liberation Mono&amp;quot;, monospace; font-size: 11.9px; padding: 0.2em 0.4em; margin: 0px; white-space-collapse: break-spaces; background-color: var(--bgColor-neutral-muted, var(--color-neutral-muted)); border-radius: 6px;&quot;&gt;shortlink&lt;/code&gt;&amp;nbsp;- 7 bytes&lt;/li&gt;&lt;li style=&quot;box-sizing: border-box; margin-top: 0.25em;&quot;&gt;&lt;code style=&quot;box-sizing: border-box; font-family: ui-monospace, SFMono-Regular, &amp;quot;SF Mono&amp;quot;, Menlo, Consolas, &amp;quot;Liberation Mono&amp;quot;, monospace; font-size: 11.9px; padding: 0.2em 0.4em; margin: 0px; white-space-collapse: break-spaces; background-color: var(--bgColor-neutral-muted, var(--color-neutral-muted)); border-radius: 6px;&quot;&gt;expiration_length_in_minutes&lt;/code&gt;&amp;nbsp;- 4 bytes&lt;/li&gt;&lt;li style=&quot;box-sizing: border-box; margin-top: 0.25em;&quot;&gt;&lt;code style=&quot;box-sizing: border-box; font-family: ui-monospace, SFMono-Regular, &amp;quot;SF Mono&amp;quot;, Menlo, Consolas, &amp;quot;Liberation Mono&amp;quot;, monospace; font-size: 11.9px; padding: 0.2em 0.4em; margin: 0px; white-space-collapse: break-spaces; background-color: var(--bgColor-neutral-muted, var(--color-neutral-muted)); border-radius: 6px;&quot;&gt;created_at&lt;/code&gt;&amp;nbsp;- 5 bytes&lt;/li&gt;&lt;li style=&quot;box-sizing: border-box; margin-top: 0.25em;&quot;&gt;&lt;code style=&quot;box-sizing: border-box; font-family: ui-monospace, SFMono-Regular, &amp;quot;SF Mono&amp;quot;, Menlo, Consolas, &amp;quot;Liberation Mono&amp;quot;, monospace; font-size: 11.9px; padding: 0.2em 0.4em; margin: 0px; white-space-collapse: break-spaces; background-color: var(--bgColor-neutral-muted, var(--color-neutral-muted)); border-radius: 6px;&quot;&gt;paste_path&lt;/code&gt;&amp;nbsp;- 255 bytes&lt;/li&gt;&lt;li style=&quot;box-sizing: border-box; margin-top: 0.25em;&quot;&gt;total = ~&lt;b&gt;1.27 KB&lt;/b&gt;&lt;/li&gt;&lt;/ul&gt;&lt;/li&gt;&lt;li style=&quot;box-sizing: border-box; margin-top: 0.25em;&quot;&gt;12.7 GB of new paste content per month&lt;ul style=&quot;box-sizing: border-box; padding-left: 2em; margin-top: 0px; margin-bottom: 0px;&quot; dir=&quot;auto&quot;&gt;&lt;li style=&quot;box-sizing: border-box;&quot;&gt;1.27 KB per paste * 10 million pastes per month&lt;/li&gt;&lt;li style=&quot;box-sizing: border-box; margin-top: 0.25em;&quot;&gt;~450 GB of new paste content in 3 years&lt;/li&gt;&lt;li style=&quot;box-sizing: border-box; margin-top: 0.25em;&quot;&gt;360 million shortlinks in 3 years&lt;/li&gt;&lt;li style=&quot;box-sizing: border-box; margin-top: 0.25em;&quot;&gt;Assume most are new pastes instead of updates to existing ones&lt;/li&gt;&lt;/ul&gt;&lt;/li&gt;&lt;li style=&quot;box-sizing: border-box; margin-top: 0.25em;&quot;&gt;4 paste writes per second on average&lt;/li&gt;&lt;li style=&quot;box-sizing: border-box; margin-top: 0.25em;&quot;&gt;40 read requests per second on average&lt;/li&gt;&lt;/ul&gt;&lt;/div&gt;" style="text;html=1;whiteSpace=wrap;overflow=hidden;rounded=0;" vertex="1" parent="1">
          <mxGeometry x="-360" y="410" width="370" height="360" as="geometry" />
        </mxCell>
        <mxCell id="a0uawv8okTH7sb19AHDm-32" value="Past" style="swimlane;fontStyle=0;childLayout=stackLayout;horizontal=1;startSize=30;horizontalStack=0;resizeParent=1;resizeParentMax=0;resizeLast=0;collapsible=1;marginBottom=0;whiteSpace=wrap;html=1;" vertex="1" parent="1">
          <mxGeometry x="55" y="632" width="140" height="120" as="geometry">
            <mxRectangle x="150" y="760" width="60" height="30" as="alternateBounds" />
          </mxGeometry>
        </mxCell>
        <mxCell id="a0uawv8okTH7sb19AHDm-33" value="URL" style="text;strokeColor=none;fillColor=none;align=left;verticalAlign=middle;spacingLeft=4;spacingRight=4;overflow=hidden;points=[[0,0.5],[1,0.5]];portConstraint=eastwest;rotatable=0;whiteSpace=wrap;html=1;" vertex="1" parent="a0uawv8okTH7sb19AHDm-32">
          <mxGeometry y="30" width="140" height="30" as="geometry" />
        </mxCell>
        <mxCell id="a0uawv8okTH7sb19AHDm-34" value="Content/Object Store link" style="text;strokeColor=none;fillColor=none;align=left;verticalAlign=middle;spacingLeft=4;spacingRight=4;overflow=hidden;points=[[0,0.5],[1,0.5]];portConstraint=eastwest;rotatable=0;whiteSpace=wrap;html=1;" vertex="1" parent="a0uawv8okTH7sb19AHDm-32">
          <mxGeometry y="60" width="140" height="30" as="geometry" />
        </mxCell>
        <mxCell id="a0uawv8okTH7sb19AHDm-35" value="Create_date" style="text;strokeColor=none;fillColor=none;align=left;verticalAlign=middle;spacingLeft=4;spacingRight=4;overflow=hidden;points=[[0,0.5],[1,0.5]];portConstraint=eastwest;rotatable=0;whiteSpace=wrap;html=1;" vertex="1" parent="a0uawv8okTH7sb19AHDm-32">
          <mxGeometry y="90" width="140" height="30" as="geometry" />
        </mxCell>
        <mxCell id="a0uawv8okTH7sb19AHDm-37" value="Use Base64 Coding [a-z A-Z 0-9] 62 char&lt;br&gt;if we use 7 digit URL then&amp;nbsp;&lt;br&gt;&lt;b&gt;62^7 = 3.5 Trillion&lt;/b&gt;&lt;div&gt;&lt;b&gt;We encode User (IP + timeStamp+ServerId) hash&lt;/b&gt;&lt;b&gt;&lt;br&gt;&lt;/b&gt;&lt;/div&gt;&lt;div&gt;&lt;span style=&quot;color: rgb(36, 41, 47); font-family: -apple-system, &amp;quot;system-ui&amp;quot;, &amp;quot;Segoe UI&amp;quot;, &amp;quot;Noto Sans&amp;quot;, Helvetica, Arial, sans-serif, &amp;quot;Apple Color Emoji&amp;quot;, &amp;quot;Segoe UI Emoji&amp;quot;; font-size: 14px; text-align: left; background-color: rgb(255, 255, 255);&quot;&gt;1 - Take the first 7 characters of the output for encoding&lt;br&gt;&lt;/span&gt;2 - Check if exist in DB generate a new one&lt;/div&gt;&lt;div&gt;&lt;br&gt;&lt;/div&gt;" style="text;html=1;align=center;verticalAlign=middle;whiteSpace=wrap;rounded=0;" vertex="1" parent="1">
          <mxGeometry y="342.5" width="250" height="117.5" as="geometry" />
        </mxCell>
        <mxCell id="a0uawv8okTH7sb19AHDm-39" value="Cache Memory" style="ellipse;whiteSpace=wrap;html=1;" vertex="1" parent="1">
          <mxGeometry x="390" y="470" width="120" height="80" as="geometry" />
        </mxCell>
        <mxCell id="a0uawv8okTH7sb19AHDm-40" style="edgeStyle=orthogonalEdgeStyle;rounded=0;orthogonalLoop=1;jettySize=auto;html=1;entryX=0.5;entryY=0;entryDx=0;entryDy=0;entryPerimeter=0;" edge="1" parent="1" source="a0uawv8okTH7sb19AHDm-39" target="a0uawv8okTH7sb19AHDm-24">
          <mxGeometry relative="1" as="geometry" />
        </mxCell>
        <mxCell id="a0uawv8okTH7sb19AHDm-42" style="edgeStyle=orthogonalEdgeStyle;rounded=0;orthogonalLoop=1;jettySize=auto;html=1;entryX=1;entryY=0;entryDx=0;entryDy=52.5;entryPerimeter=0;" edge="1" parent="1" source="a0uawv8okTH7sb19AHDm-23" target="a0uawv8okTH7sb19AHDm-24">
          <mxGeometry relative="1" as="geometry">
            <Array as="points">
              <mxPoint x="550" y="400" />
              <mxPoint x="550" y="679" />
            </Array>
          </mxGeometry>
        </mxCell>
        <mxCell id="a0uawv8okTH7sb19AHDm-43" value="Object Store (e.g. S3)" style="shape=cylinder3;whiteSpace=wrap;html=1;boundedLbl=1;backgroundOutline=1;size=15;" vertex="1" parent="1">
          <mxGeometry x="600" y="780" width="60" height="80" as="geometry" />
        </mxCell>
        <mxCell id="a0uawv8okTH7sb19AHDm-47" style="edgeStyle=orthogonalEdgeStyle;rounded=0;orthogonalLoop=1;jettySize=auto;html=1;entryX=0.5;entryY=0;entryDx=0;entryDy=0;entryPerimeter=0;" edge="1" parent="1" source="a0uawv8okTH7sb19AHDm-6" target="a0uawv8okTH7sb19AHDm-43">
          <mxGeometry relative="1" as="geometry">
            <Array as="points">
              <mxPoint x="630" y="260" />
              <mxPoint x="630" y="260" />
            </Array>
          </mxGeometry>
        </mxCell>
        <mxCell id="a0uawv8okTH7sb19AHDm-48" value="Analytics" style="rounded=1;whiteSpace=wrap;html=1;" vertex="1" parent="1">
          <mxGeometry x="660" y="360" width="120" height="60" as="geometry" />
        </mxCell>
        <mxCell id="a0uawv8okTH7sb19AHDm-49" style="edgeStyle=orthogonalEdgeStyle;rounded=0;orthogonalLoop=1;jettySize=auto;html=1;entryX=1;entryY=0;entryDx=0;entryDy=15;entryPerimeter=0;" edge="1" parent="1" source="a0uawv8okTH7sb19AHDm-48" target="a0uawv8okTH7sb19AHDm-43">
          <mxGeometry relative="1" as="geometry" />
        </mxCell>
        <mxCell id="a0uawv8okTH7sb19AHDm-50" style="edgeStyle=orthogonalEdgeStyle;rounded=0;orthogonalLoop=1;jettySize=auto;html=1;entryX=0.145;entryY=0;entryDx=0;entryDy=4.35;entryPerimeter=0;" edge="1" parent="1" source="a0uawv8okTH7sb19AHDm-59" target="a0uawv8okTH7sb19AHDm-43">
          <mxGeometry relative="1" as="geometry">
            <Array as="points">
              <mxPoint x="600" y="784" />
            </Array>
          </mxGeometry>
        </mxCell>
        <mxCell id="a0uawv8okTH7sb19AHDm-51" value="SQL Analytics" style="shape=cylinder3;whiteSpace=wrap;html=1;boundedLbl=1;backgroundOutline=1;size=15;" vertex="1" parent="1">
          <mxGeometry x="750" y="230" width="60" height="80" as="geometry" />
        </mxCell>
        <mxCell id="a0uawv8okTH7sb19AHDm-52" style="edgeStyle=orthogonalEdgeStyle;rounded=0;orthogonalLoop=1;jettySize=auto;html=1;entryX=0;entryY=0.5;entryDx=0;entryDy=0;entryPerimeter=0;" edge="1" parent="1" source="a0uawv8okTH7sb19AHDm-48" target="a0uawv8okTH7sb19AHDm-51">
          <mxGeometry relative="1" as="geometry" />
        </mxCell>
        <mxCell id="a0uawv8okTH7sb19AHDm-54" value="Store content" style="text;html=1;align=center;verticalAlign=middle;whiteSpace=wrap;rounded=0;" vertex="1" parent="1">
          <mxGeometry x="305" y="805" width="60" height="30" as="geometry" />
        </mxCell>
        <mxCell id="a0uawv8okTH7sb19AHDm-55" style="edgeStyle=orthogonalEdgeStyle;rounded=0;orthogonalLoop=1;jettySize=auto;html=1;entryX=0;entryY=0.5;entryDx=0;entryDy=0;entryPerimeter=0;" edge="1" parent="1" source="a0uawv8okTH7sb19AHDm-54" target="a0uawv8okTH7sb19AHDm-43">
          <mxGeometry relative="1" as="geometry" />
        </mxCell>
        <mxCell id="a0uawv8okTH7sb19AHDm-59" value="Reads Content" style="text;html=1;align=center;verticalAlign=middle;whiteSpace=wrap;rounded=0;" vertex="1" parent="1">
          <mxGeometry x="570" y="590" width="60" height="30" as="geometry" />
        </mxCell>
        <mxCell id="a0uawv8okTH7sb19AHDm-61" value="Store hits count per paste" style="text;html=1;align=center;verticalAlign=middle;whiteSpace=wrap;rounded=0;" vertex="1" parent="1">
          <mxGeometry x="725" y="420" width="110" height="40" as="geometry" />
        </mxCell>
        <mxCell id="a0uawv8okTH7sb19AHDm-65" style="edgeStyle=orthogonalEdgeStyle;rounded=0;orthogonalLoop=1;jettySize=auto;html=1;entryX=1;entryY=1;entryDx=0;entryDy=0;" edge="1" parent="1" source="a0uawv8okTH7sb19AHDm-62" target="a0uawv8okTH7sb19AHDm-39">
          <mxGeometry relative="1" as="geometry" />
        </mxCell>
        <mxCell id="a0uawv8okTH7sb19AHDm-62" value="Invalidating service&amp;nbsp;&lt;br&gt;clean expired pastes" style="rounded=1;whiteSpace=wrap;html=1;" vertex="1" parent="1">
          <mxGeometry x="130" y="840" width="120" height="60" as="geometry" />
        </mxCell>
        <mxCell id="a0uawv8okTH7sb19AHDm-63" style="edgeStyle=orthogonalEdgeStyle;rounded=0;orthogonalLoop=1;jettySize=auto;html=1;entryX=0.5;entryY=1;entryDx=0;entryDy=0;entryPerimeter=0;" edge="1" parent="1" source="a0uawv8okTH7sb19AHDm-62" target="a0uawv8okTH7sb19AHDm-18">
          <mxGeometry relative="1" as="geometry" />
        </mxCell>
        <mxCell id="a0uawv8okTH7sb19AHDm-64" style="edgeStyle=orthogonalEdgeStyle;rounded=0;orthogonalLoop=1;jettySize=auto;html=1;entryX=0.5;entryY=1;entryDx=0;entryDy=0;entryPerimeter=0;" edge="1" parent="1" source="a0uawv8okTH7sb19AHDm-62" target="a0uawv8okTH7sb19AHDm-43">
          <mxGeometry relative="1" as="geometry">
            <Array as="points">
              <mxPoint x="630" y="880" />
            </Array>
          </mxGeometry>
        </mxCell>
      </root>
    </mxGraphModel>
  </diagram>
</mxfile>
